<svg width="20" height="20" viewBox="0 0 20 20" fill="none" xmlns="http://www.w3.org/2000/svg">
<path fill-rule="evenodd" clip-rule="evenodd" d="M15.5468 17.4141L17.3945 15.5665L16.7437 13.2024L17.0272 12.5253L19.1667 11.3181V8.70529L17.0333 7.49303L16.7546 6.81714L17.4135 4.45188L15.5645 2.60561L13.2002 3.25615L12.5247 2.9729L11.3174 0.833252H8.70454L7.49228 2.96662L6.81655 3.24531L4.45166 2.58559L2.6056 4.43166L3.25624 6.79631L2.97299 7.47187L0.833344 8.6792V11.2913L2.96479 12.5062L3.24378 13.1827L2.58498 15.5476L4.43175 17.3943L6.79641 16.7437L7.47204 17.027L8.6794 19.1657H11.2915L12.5056 17.0342L13.1819 16.7553L15.5468 17.4141ZM15.7106 11.3546L14.9841 13.0897L15.5302 15.0737L15.0565 15.5474L13.0767 14.9959L11.3408 15.7118L10.3228 17.4991H9.65244L8.64285 15.7106L6.90964 14.9839L4.92456 15.5301L4.4517 15.0573L5.00322 13.0775L4.28736 11.3417L2.50001 10.3229V9.65245L4.28926 8.64284L5.01601 6.90955L4.4698 4.92447L4.94169 4.45259L6.92148 5.00488L8.65796 4.28871L9.67443 2.49992H10.3441L11.3537 4.28917L13.087 5.01591L15.0725 4.4696L15.5465 4.94297L14.9951 6.92238L15.7112 8.65871L17.5 9.67518V10.3449L15.7106 11.3546ZM10 13.3333C8.15906 13.3333 6.66668 11.8409 6.66668 9.99992C6.66668 8.15897 8.15906 6.66659 10 6.66659C11.841 6.66659 13.3333 8.15897 13.3333 9.99992C13.3333 11.8409 11.841 13.3333 10 13.3333ZM11.6667 9.99992C11.6667 10.9204 10.9205 11.6666 10 11.6666C9.07953 11.6666 8.33334 10.9204 8.33334 9.99992C8.33334 9.07944 9.07953 8.33325 10 8.33325C10.9205 8.33325 11.6667 9.07944 11.6667 9.99992Z" fill="#F80595"/>
</svg>
