<svg width="20" height="20" viewBox="0 0 20 20" fill="none" xmlns="http://www.w3.org/2000/svg">
<path fill-rule="evenodd" clip-rule="evenodd" d="M15.5468 17.4143L17.3945 15.5667L16.7437 13.2027L17.0272 12.5256L19.1667 11.3184V8.70554L17.0333 7.49327L16.7545 6.81739L17.4135 4.45212L15.5645 2.60586L13.2002 3.2564L12.5247 2.97314L11.3173 0.833496H8.70453L7.49227 2.96687L6.81654 3.24555L4.45165 2.58584L2.60559 4.4319L3.25623 6.79656L2.97298 7.47212L0.833336 8.67945V11.2915L2.96478 12.5065L3.24377 13.1829L2.58498 15.5478L4.43174 17.3946L6.7964 16.7439L7.47203 17.0272L8.67939 19.166H11.2915L12.5056 17.0345L13.1819 16.7556L15.5468 17.4143ZM15.7106 11.3548L14.984 13.09L15.5302 15.074L15.0565 15.5476L13.0767 14.9961L11.3408 15.712L10.3228 17.4993H9.65243L8.64284 15.7109L6.90963 14.9842L4.92456 15.5304L4.45169 15.0575L5.00321 13.0777L4.28735 11.3419L2.5 10.3231V9.65269L4.28925 8.64308L5.016 6.90979L4.4698 4.92472L4.94168 4.45284L6.92147 5.00512L8.65796 4.28896L9.67442 2.50016H10.3441L11.3537 4.28941L13.087 5.01616L15.0725 4.46985L15.5465 4.94321L14.9951 6.92263L15.7112 8.65896L17.5 9.67542V10.3451L15.7106 11.3548ZM10 13.3335C8.15905 13.3335 6.66667 11.8411 6.66667 10.0002C6.66667 8.15921 8.15905 6.66683 10 6.66683C11.841 6.66683 13.3333 8.15921 13.3333 10.0002C13.3333 11.8411 11.841 13.3335 10 13.3335ZM11.6667 10.0002C11.6667 10.9206 10.9205 11.6668 10 11.6668C9.07953 11.6668 8.33334 10.9206 8.33334 10.0002C8.33334 9.07969 9.07953 8.3335 10 8.3335C10.9205 8.3335 11.6667 9.07969 11.6667 10.0002Z" fill="#9B9B9B"/>
</svg>
