<svg width="24" height="20" viewBox="0 0 24 20" fill="none" xmlns="http://www.w3.org/2000/svg">
<rect x="2.44147" y="4.28247" width="19.1229" height="15.4805" rx="4" fill="url(#paint0_linear_308_4871)"/>
<path d="M5.16883 4.00176H0.637329L4.03058 0.640137H7.44532L5.16883 4.00176Z" fill="white"/>
<path d="M9.71917 4.00176H5.1662L7.44269 0.640137H10.8574L9.71917 4.00176Z" fill="#7B61FF"/>
<path d="M14.2725 4.00175H9.71948L10.8577 0.640137H14.2725V4.00175Z" fill="white"/>
<path d="M18.8059 4.00176H14.2744V0.640137H17.6892L18.8059 4.00176Z" fill="#7B61FF"/>
<path d="M23.3591 4.00175H18.8061L17.6893 0.640137H21.1041L23.3591 4.00175Z" fill="white"/>
<path d="M2.89441 8.56501C1.62731 8.56501 0.61792 7.68234 0.61792 6.57432V4.00146H5.1709V6.55555C5.1709 7.66356 4.16151 8.56501 2.89441 8.56501Z" fill="white"/>
<path d="M7.44287 8.56476C6.17577 8.56476 5.16638 7.6821 5.16638 6.57408V4.00122H9.71936V6.5553C9.71936 7.66332 8.6885 8.56476 7.44287 8.56476Z" fill="#7B61FF"/>
<path d="M11.9962 8.56476C10.7291 8.56476 9.71967 7.6821 9.71967 6.57408V4.00122H14.2726V6.5553C14.2726 7.66332 13.2418 8.56476 11.9962 8.56476Z" fill="white"/>
<path d="M16.5559 8.56501C15.2888 8.56501 14.2794 7.68234 14.2794 6.57432V4.00146H18.8324V6.55555C18.8324 7.66356 17.8015 8.56501 16.5559 8.56501Z" fill="#7B61FF"/>
<path d="M21.106 8.56501C19.8389 8.56501 18.8295 7.68234 18.8295 6.57432V4.00146H23.3824V6.55555C23.361 7.66356 22.3516 8.56501 21.106 8.56501Z" fill="white"/>
<defs>
<linearGradient id="paint0_linear_308_4871" x1="7.97472" y1="6.86255" x2="14.8399" y2="19.034" gradientUnits="userSpaceOnUse">
<stop stop-color="#C361FF"/>
<stop offset="1" stop-color="#6A51F9"/>
</linearGradient>
</defs>
</svg>
