<svg width="21" height="20" viewBox="0 0 21 20" fill="none" xmlns="http://www.w3.org/2000/svg">
<path d="M7.16667 9.16699C7.00185 9.16699 6.84073 9.21587 6.70369 9.30743C6.56665 9.399 6.45984 9.52915 6.39677 9.68142C6.33369 9.83369 6.31719 10.0012 6.34934 10.1629C6.3815 10.3246 6.46087 10.473 6.57741 10.5896C6.69395 10.7061 6.84244 10.7855 7.00409 10.8176C7.16574 10.8498 7.3333 10.8333 7.48557 10.7702C7.63784 10.7072 7.76799 10.6003 7.85956 10.4633C7.95112 10.3263 8 10.1651 8 10.0003C8 9.77931 7.9122 9.56735 7.75592 9.41107C7.59964 9.25479 7.38768 9.16699 7.16667 9.16699ZM10.5 9.16699C10.3352 9.16699 10.1741 9.21587 10.037 9.30743C9.89998 9.399 9.79317 9.52915 9.7301 9.68142C9.66703 9.83369 9.65052 10.0012 9.68268 10.1629C9.71483 10.3246 9.7942 10.473 9.91074 10.5896C10.0273 10.7061 10.1758 10.7855 10.3374 10.8176C10.4991 10.8498 10.6666 10.8333 10.8189 10.7702C10.9712 10.7072 11.1013 10.6003 11.1929 10.4633C11.2845 10.3263 11.3333 10.1651 11.3333 10.0003C11.3333 9.77931 11.2455 9.56735 11.0893 9.41107C10.933 9.25479 10.721 9.16699 10.5 9.16699ZM13.8333 9.16699C13.6685 9.16699 13.5074 9.21587 13.3704 9.30743C13.2333 9.399 13.1265 9.52915 13.0634 9.68142C13.0004 9.83369 12.9839 10.0012 13.016 10.1629C13.0482 10.3246 13.1275 10.473 13.2441 10.5896C13.3606 10.7061 13.5091 10.7855 13.6708 10.8176C13.8324 10.8498 14 10.8333 14.1522 10.7702C14.3045 10.7072 14.4347 10.6003 14.5262 10.4633C14.6178 10.3263 14.6667 10.1651 14.6667 10.0003C14.6667 9.77931 14.5789 9.56735 14.4226 9.41107C14.2663 9.25479 14.0543 9.16699 13.8333 9.16699ZM10.5 1.66699C9.40565 1.66699 8.32202 1.88254 7.31097 2.30133C6.29992 2.72012 5.38126 3.33395 4.60744 4.10777C3.04464 5.67057 2.16667 7.79019 2.16667 10.0003C2.15938 11.9246 2.82566 13.7908 4.05 15.2753L2.38333 16.942C2.2677 17.0592 2.18937 17.208 2.15823 17.3696C2.12708 17.5313 2.14452 17.6986 2.20833 17.8503C2.27755 18.0003 2.38975 18.1263 2.5307 18.2123C2.67166 18.2984 2.835 18.3406 3 18.3337H10.5C12.7101 18.3337 14.8298 17.4557 16.3926 15.8929C17.9554 14.3301 18.8333 12.2105 18.8333 10.0003C18.8333 7.79019 17.9554 5.67057 16.3926 4.10777C14.8298 2.54497 12.7101 1.66699 10.5 1.66699ZM10.5 16.667H5.00833L5.78333 15.892C5.86207 15.8148 5.92471 15.7228 5.96763 15.6212C6.01054 15.5197 6.03287 15.4106 6.03333 15.3003C6.0302 15.0805 5.94034 14.8709 5.78333 14.717C4.69215 13.627 4.01264 12.1924 3.86057 10.6577C3.70851 9.12287 4.09328 7.58283 4.94935 6.29993C5.80543 5.01702 7.07982 4.07062 8.55543 3.62197C10.031 3.17332 11.6165 3.25016 13.0418 3.83942C14.4671 4.42868 15.644 5.49389 16.372 6.85357C17.1 8.21325 17.3341 9.78328 17.0343 11.2962C16.7345 12.8091 15.9194 14.1712 14.7279 15.1505C13.5365 16.1299 12.0423 16.6658 10.5 16.667Z" fill="#F80595"/>
</svg>
