<svg width="21" height="20" viewBox="0 0 21 20" fill="none" xmlns="http://www.w3.org/2000/svg">
<path d="M7.16667 9.1665C7.00185 9.1665 6.84073 9.21538 6.70369 9.30695C6.56665 9.39851 6.45984 9.52866 6.39677 9.68093C6.33369 9.83321 6.31719 10.0008 6.34934 10.1624C6.3815 10.3241 6.46087 10.4725 6.57741 10.5891C6.69395 10.7056 6.84244 10.785 7.00409 10.8172C7.16574 10.8493 7.3333 10.8328 7.48557 10.7697C7.63784 10.7067 7.76799 10.5999 7.85956 10.4628C7.95112 10.3258 8 10.1647 8 9.99984C8 9.77882 7.9122 9.56686 7.75592 9.41058C7.59964 9.2543 7.38768 9.1665 7.16667 9.1665ZM10.5 9.1665C10.3352 9.1665 10.1741 9.21538 10.037 9.30695C9.89998 9.39851 9.79317 9.52866 9.7301 9.68093C9.66703 9.83321 9.65052 10.0008 9.68268 10.1624C9.71483 10.3241 9.7942 10.4725 9.91074 10.5891C10.0273 10.7056 10.1758 10.785 10.3374 10.8172C10.4991 10.8493 10.6666 10.8328 10.8189 10.7697C10.9712 10.7067 11.1013 10.5999 11.1929 10.4628C11.2845 10.3258 11.3333 10.1647 11.3333 9.99984C11.3333 9.77882 11.2455 9.56686 11.0893 9.41058C10.933 9.2543 10.721 9.1665 10.5 9.1665ZM13.8333 9.1665C13.6685 9.1665 13.5074 9.21538 13.3704 9.30695C13.2333 9.39851 13.1265 9.52866 13.0634 9.68093C13.0004 9.83321 12.9839 10.0008 13.016 10.1624C13.0482 10.3241 13.1275 10.4725 13.2441 10.5891C13.3606 10.7056 13.5091 10.785 13.6708 10.8172C13.8324 10.8493 14 10.8328 14.1522 10.7697C14.3045 10.7067 14.4347 10.5999 14.5262 10.4628C14.6178 10.3258 14.6667 10.1647 14.6667 9.99984C14.6667 9.77882 14.5789 9.56686 14.4226 9.41058C14.2663 9.2543 14.0543 9.1665 13.8333 9.1665ZM10.5 1.6665C9.40565 1.6665 8.32202 1.88205 7.31097 2.30084C6.29992 2.71963 5.38126 3.33346 4.60744 4.10728C3.04464 5.67008 2.16667 7.7897 2.16667 9.99984C2.15938 11.9241 2.82566 13.7903 4.05 15.2748L2.38333 16.9415C2.2677 17.0587 2.18937 17.2075 2.15823 17.3692C2.12708 17.5308 2.14452 17.6981 2.20833 17.8498C2.27755 17.9998 2.38975 18.1258 2.5307 18.2118C2.67166 18.2979 2.835 18.3401 3 18.3332H10.5C12.7101 18.3332 14.8298 17.4552 16.3926 15.8924C17.9554 14.3296 18.8333 12.21 18.8333 9.99984C18.8333 7.7897 17.9554 5.67008 16.3926 4.10728C14.8298 2.54448 12.7101 1.6665 10.5 1.6665ZM10.5 16.6665H5.00833L5.78333 15.8915C5.86207 15.8143 5.92471 15.7223 5.96763 15.6207C6.01054 15.5192 6.03287 15.4101 6.03333 15.2998C6.0302 15.08 5.94034 14.8704 5.78333 14.7165C4.69215 13.6265 4.01264 12.192 3.86057 10.6572C3.70851 9.12238 4.09328 7.58234 4.94935 6.29944C5.80543 5.01654 7.07982 4.07014 8.55543 3.62148C10.031 3.17283 11.6165 3.24967 13.0418 3.83893C14.4671 4.42819 15.644 5.4934 16.372 6.85308C17.1 8.21276 17.3341 9.78279 17.0343 11.2957C16.7345 12.8086 15.9194 14.1707 14.7279 15.15C13.5365 16.1294 12.0423 16.6653 10.5 16.6665Z" fill="#9B9B9B"/>
</svg>
