<svg width="21" height="20" viewBox="0 0 21 20" fill="none" xmlns="http://www.w3.org/2000/svg">
<path d="M18.8333 1.66675H2.16666C1.94565 1.66675 1.73369 1.75455 1.57741 1.91083C1.42113 2.06711 1.33333 2.27907 1.33333 2.50008V5.83342C1.33478 6.3492 1.49573 6.85192 1.79411 7.27264C2.09249 7.69336 2.5137 8.01149 2.99999 8.18341V17.5001C2.99999 17.7211 3.08779 17.9331 3.24407 18.0893C3.40035 18.2456 3.61231 18.3334 3.83333 18.3334H17.1667C17.3877 18.3334 17.5996 18.2456 17.7559 18.0893C17.9122 17.9331 18 17.7211 18 17.5001V8.18341C18.4863 8.01149 18.9075 7.69336 19.2059 7.27264C19.5043 6.85192 19.6652 6.3492 19.6667 5.83342V2.50008C19.6667 2.27907 19.5789 2.06711 19.4226 1.91083C19.2663 1.75455 19.0543 1.66675 18.8333 1.66675ZM13 3.33341H14.6667V5.83342C14.6667 6.05443 14.5789 6.26639 14.4226 6.42267C14.2663 6.57895 14.0543 6.66675 13.8333 6.66675C13.6123 6.66675 13.4004 6.57895 13.2441 6.42267C13.0878 6.26639 13 6.05443 13 5.83342V3.33341ZM9.66666 3.33341H11.3333V5.83342C11.3333 6.05443 11.2455 6.26639 11.0892 6.42267C10.933 6.57895 10.721 6.66675 10.5 6.66675C10.279 6.66675 10.067 6.57895 9.91074 6.42267C9.75446 6.26639 9.66666 6.05443 9.66666 5.83342V3.33341ZM6.33333 3.33341H7.99999V5.83342C7.99999 6.05443 7.9122 6.26639 7.75592 6.42267C7.59964 6.57895 7.38767 6.66675 7.16666 6.66675C6.94565 6.66675 6.73369 6.57895 6.57741 6.42267C6.42113 6.26639 6.33333 6.05443 6.33333 5.83342V3.33341ZM3.83333 6.66675C3.61231 6.66675 3.40035 6.57895 3.24407 6.42267C3.08779 6.26639 2.99999 6.05443 2.99999 5.83342V3.33341H4.66666V5.83342C4.66666 6.05443 4.57886 6.26639 4.42258 6.42267C4.2663 6.57895 4.05434 6.66675 3.83333 6.66675ZM12.1667 16.6667H8.83333V13.3334C8.83333 12.8914 9.00892 12.4675 9.32148 12.1549C9.63404 11.8423 10.058 11.6667 10.5 11.6667C10.942 11.6667 11.3659 11.8423 11.6785 12.1549C11.9911 12.4675 12.1667 12.8914 12.1667 13.3334V16.6667ZM16.3333 16.6667H13.8333V13.3334C13.8333 12.4494 13.4821 11.6015 12.857 10.9764C12.2319 10.3513 11.384 10.0001 10.5 10.0001C9.61594 10.0001 8.76809 10.3513 8.14297 10.9764C7.51785 11.6015 7.16666 12.4494 7.16666 13.3334V16.6667H4.66666V8.18341C4.97297 8.06972 5.25553 7.90018 5.49999 7.68342C5.95835 8.09338 6.55172 8.32003 7.16666 8.32003C7.7816 8.32003 8.37498 8.09338 8.83333 7.68342C9.29168 8.09338 9.88505 8.32003 10.5 8.32003C11.1149 8.32003 11.7083 8.09338 12.1667 7.68342C12.625 8.09338 13.2184 8.32003 13.8333 8.32003C14.4483 8.32003 15.0416 8.09338 15.5 7.68342C15.7445 7.90018 16.027 8.06972 16.3333 8.18341V16.6667ZM18 5.83342C18 6.05443 17.9122 6.26639 17.7559 6.42267C17.5996 6.57895 17.3877 6.66675 17.1667 6.66675C16.9456 6.66675 16.7337 6.57895 16.5774 6.42267C16.4211 6.26639 16.3333 6.05443 16.3333 5.83342V3.33341H18V5.83342Z" fill="#F80595"/>
</svg>
