<svg width="21" height="20" viewBox="0 0 21 20" fill="none" xmlns="http://www.w3.org/2000/svg">
<path d="M18.8333 1.6665H2.16666C1.94565 1.6665 1.73369 1.7543 1.57741 1.91058C1.42113 2.06686 1.33333 2.27882 1.33333 2.49984V5.83317C1.33478 6.34896 1.49573 6.85167 1.79411 7.27239C2.09249 7.69311 2.5137 8.01124 2.99999 8.18317V17.4998C2.99999 17.7209 3.08779 17.9328 3.24407 18.0891C3.40035 18.2454 3.61231 18.3332 3.83333 18.3332H17.1667C17.3877 18.3332 17.5996 18.2454 17.7559 18.0891C17.9122 17.9328 18 17.7209 18 17.4998V8.18317C18.4863 8.01124 18.9075 7.69311 19.2059 7.27239C19.5043 6.85167 19.6652 6.34896 19.6667 5.83317V2.49984C19.6667 2.27882 19.5789 2.06686 19.4226 1.91058C19.2663 1.7543 19.0543 1.6665 18.8333 1.6665ZM13 3.33317H14.6667V5.83317C14.6667 6.05418 14.5789 6.26615 14.4226 6.42243C14.2663 6.57871 14.0543 6.6665 13.8333 6.6665C13.6123 6.6665 13.4004 6.57871 13.2441 6.42243C13.0878 6.26615 13 6.05418 13 5.83317V3.33317ZM9.66666 3.33317H11.3333V5.83317C11.3333 6.05418 11.2455 6.26615 11.0892 6.42243C10.933 6.57871 10.721 6.6665 10.5 6.6665C10.279 6.6665 10.067 6.57871 9.91074 6.42243C9.75446 6.26615 9.66666 6.05418 9.66666 5.83317V3.33317ZM6.33333 3.33317H7.99999V5.83317C7.99999 6.05418 7.9122 6.26615 7.75592 6.42243C7.59964 6.57871 7.38767 6.6665 7.16666 6.6665C6.94565 6.6665 6.73369 6.57871 6.57741 6.42243C6.42113 6.26615 6.33333 6.05418 6.33333 5.83317V3.33317ZM3.83333 6.6665C3.61231 6.6665 3.40035 6.57871 3.24407 6.42243C3.08779 6.26615 2.99999 6.05418 2.99999 5.83317V3.33317H4.66666V5.83317C4.66666 6.05418 4.57886 6.26615 4.42258 6.42243C4.2663 6.57871 4.05434 6.6665 3.83333 6.6665ZM12.1667 16.6665H8.83333V13.3332C8.83333 12.8911 9.00892 12.4672 9.32148 12.1547C9.63404 11.8421 10.058 11.6665 10.5 11.6665C10.942 11.6665 11.3659 11.8421 11.6785 12.1547C11.9911 12.4672 12.1667 12.8911 12.1667 13.3332V16.6665ZM16.3333 16.6665H13.8333V13.3332C13.8333 12.4491 13.4821 11.6013 12.857 10.9761C12.2319 10.351 11.384 9.99984 10.5 9.99984C9.61594 9.99984 8.76809 10.351 8.14297 10.9761C7.51785 11.6013 7.16666 12.4491 7.16666 13.3332V16.6665H4.66666V8.18317C4.97297 8.06947 5.25553 7.89994 5.49999 7.68317C5.95835 8.09313 6.55172 8.31978 7.16666 8.31978C7.7816 8.31978 8.37498 8.09313 8.83333 7.68317C9.29168 8.09313 9.88505 8.31978 10.5 8.31978C11.1149 8.31978 11.7083 8.09313 12.1667 7.68317C12.625 8.09313 13.2184 8.31978 13.8333 8.31978C14.4483 8.31978 15.0416 8.09313 15.5 7.68317C15.7445 7.89994 16.027 8.06947 16.3333 8.18317V16.6665ZM18 5.83317C18 6.05418 17.9122 6.26615 17.7559 6.42243C17.5996 6.57871 17.3877 6.6665 17.1667 6.6665C16.9456 6.6665 16.7337 6.57871 16.5774 6.42243C16.4211 6.26615 16.3333 6.05418 16.3333 5.83317V3.33317H18V5.83317Z" fill="#9B9B9B"/>
</svg>
